<?xml version="1.0" encoding="UTF-8" standalone="no"?>
<!-- Created with Inkscape (http://www.inkscape.org/) -->

<svg
   xmlns:dc="http://purl.org/dc/elements/1.1/"
   xmlns:cc="http://creativecommons.org/ns#"
   xmlns:rdf="http://www.w3.org/1999/02/22-rdf-syntax-ns#"
   xmlns:svg="http://www.w3.org/2000/svg"
   xmlns="http://www.w3.org/2000/svg"
   xmlns:sodipodi="http://sodipodi.sourceforge.net/DTD/sodipodi-0.dtd"
   xmlns:inkscape="http://www.inkscape.org/namespaces/inkscape"
   version="1.1"
   id="svg3713"
   width="245.79515"
   height="211.5"
   viewBox="0 0 245.79515 211.5"
   sodipodi:docname="logo.svg"
   inkscape:version="0.92.4 (5da689c313, 2019-01-14)">
  <metadata
     id="metadata3719">
    <rdf:RDF>
      <cc:Work
         rdf:about="">
        <dc:format>image/svg+xml</dc:format>
        <dc:type
           rdf:resource="http://purl.org/dc/dcmitype/StillImage" />
        <dc:title></dc:title>
      </cc:Work>
    </rdf:RDF>
  </metadata>
  <defs
     id="defs3717" />
  <sodipodi:namedview
     pagecolor="#ffffff"
     bordercolor="#666666"
     borderopacity="1"
     objecttolerance="10"
     gridtolerance="10"
     guidetolerance="10"
     inkscape:pageopacity="0"
     inkscape:pageshadow="2"
     inkscape:window-width="1920"
     inkscape:window-height="1057"
     id="namedview3715"
     showgrid="false"
     fit-margin-top="0"
     fit-margin-left="0"
     fit-margin-right="0"
     fit-margin-bottom="0"
     inkscape:zoom="3.2888889"
     inkscape:cx="130.99324"
     inkscape:cy="86.54054"
     inkscape:window-x="-8"
     inkscape:window-y="-8"
     inkscape:window-maximized="1"
     inkscape:current-layer="svg3713" />
  <g
     id="g3869"
     transform="translate(-11,-29.5)">
    <path
       style="fill:#fef1eb"
       d="M 11.666667,240.33333 C 11.3,239.96667 11,239.0345 11,238.26186 11,237.48921 26.826584,209.77671 46.170187,176.67852 65.51379,143.58034 92.762009,96.925 106.72179,73 c 20.45012,-35.048505 25.78176,-43.5 27.44204,-43.5 1.67852,0 13.26152,19.192961 62.46255,103.5 35.5125,60.85145 60.29307,104.32413 60.13777,105.5 -0.25985,1.96747 -1.11809,2.00425 -52.76415,2.26145 -48.46796,0.24137 -52.596,0.13069 -53.75,-1.44113 -1.57178,-2.14086 -1.75611,-32.50612 -0.21482,-35.38606 0.97039,-1.81319 2.28483,-1.93426 21,-1.93426 C 182.01583,202 191,201.72695 191,201.39321 191,201.05948 178.30002,179.01303 162.77782,152.40111 140.87187,114.8446 134.29419,104.29378 133.38742,105.25789 132.22249,106.4965 77,200.85225 77,201.60409 77,201.82184 85.91,202 96.8,202 c 14.06667,0 20.14747,0.34747 21,1.2 1.68626,1.68626 1.68626,34.91374 0,36.6 -0.90264,0.90264 -14.11852,1.2 -53.333333,1.2 -28.673334,0 -52.433334,-0.3 -52.8,-0.66667 z"
       id="path3899"
       inkscape:connector-curvature="0" />
    <path
       style="fill:#feece4"
       d="M 12.537665,239.6512 C 10.589908,238.22697 11.526156,236.57784 103.4592,79.5 c 9.97887,-17.05 20.51896,-35.128229 23.42244,-40.173841 2.90347,-5.045613 5.90172,-9.412785 6.66277,-9.704828 0.78665,-0.301865 2.19669,0.636155 3.26775,2.173841 1.76012,2.526956 116.35781,198.839788 119.15843,204.125658 C 258.63035,240.94085 258.01925,241 203.5,241 c -38.61426,0 -50.51157,-0.28797 -51.83354,-1.25462 -1.52707,-1.11662 -1.68558,-3.17898 -1.44113,-18.75 L 150.5,203.5 171,203 c 16.91761,-0.41262 20.44714,-0.74596 20.19751,-1.90747 C 191.03114,200.31842 178.2135,177.93964 162.71385,151.3619 141.18684,114.44882 134.26507,103.32932 133.39927,104.26937 131.94304,105.85051 76.923088,200.17083 76.681647,201.5 76.567768,202.12692 84.148076,202.68654 97,203 l 20.5,0.5 0.27209,18.12759 c 0.27182,18.11012 0.26989,18.12818 -2,18.73635 -1.24965,0.33481 -24.573582,0.6149 -51.83096,0.62241 -40.021383,0.011 -49.913858,-0.24592 -51.403465,-1.33515 z"
       id="path3897"
       inkscape:connector-curvature="0" />
    <path
       style="fill:#fee4d9"
       d="m 12.20778,237.6934 c 0.244386,-1.27842 25.786546,-45.71993 56.760355,-98.7589 30.97381,-53.038976 57.939585,-99.23838 59.923945,-102.665345 2.06884,-3.572877 4.30254,-6.239016 5.23625,-6.25 2.09848,-0.02469 123.49535,207.757165 122.16166,209.090855 -0.52762,0.52762 -22.87774,0.79951 -53.34901,0.64901 L 150.5,239.5 v -18 -18 l 20.75,-0.27029 c 11.50784,-0.1499 20.75,-0.67318 20.75,-1.17484 0,-1.30926 -57.11592,-99.05828 -57.86855,-99.03708 C 133.45557,103.03682 76,201.1485 76,202.28361 c 0,0.3717 9.3375,0.79744 20.75,0.9461 L 117.5,203.5 v 18 18 l -52.868279,0.2589 -52.868278,0.2589 z"
       id="path3895"
       inkscape:connector-curvature="0" />
    <path
       style="fill:#fed8c8"
       d="m 12.411575,238.63016 c -0.292882,-0.76323 13.4991,-25.40475 30.648847,-54.75893 C 60.21017,154.51705 87.083001,108.45 102.77782,81.5 118.47265,54.55 131.94728,31.825 132.72145,31 c 1.24471,-1.326447 1.60967,-1.253835 3.15422,0.627568 4.36204,5.313373 120.26614,205.560512 119.75319,206.897222 -0.48879,1.27377 -7.57541,1.47521 -51.89748,1.47521 -38.59107,0 -51.62922,-0.29784 -52.53138,-1.2 -1.68216,-1.68216 -1.68216,-32.91784 0,-34.6 0.85452,-0.85452 7.04444,-1.2 21.5,-1.2 11.165,0 20.3,-0.15747 20.3,-0.34994 0,-1.192 -57.74872,-99.0663 -58.62423,-99.35814 C 133.35974,102.95325 76,199.98455 76,202.04199 76,202.62054 83.873324,203 95.877555,203 c 15.696335,0 20.118855,0.29075 21.024715,1.38224 0.78831,0.94986 1.06122,6.65872 0.87244,18.25 L 117.5,239.5 65.222043,239.75893 c -43.840158,0.21715 -52.363905,0.035 -52.810468,-1.12877 z"
       id="path3893"
       inkscape:connector-curvature="0" />
    <path
       style="fill:#fecbb5"
       d="m 12.490761,238.98505 c -0.345001,-0.55822 2.70189,-6.74572 6.770868,-13.75 C 23.330607,218.23077 49.547506,173.35 77.521404,125.5 105.4953,77.65 129.30935,36.802855 130.44152,34.728568 c 1.33821,-2.451795 2.66737,-3.676457 3.79864,-3.5 2.11785,0.330345 122.08232,205.488672 121.31971,207.476012 -0.40901,1.06585 -10.26474,1.26462 -52.28194,1.05443 L 151.5,239.5 151.22563,222.07408 c -0.20896,-13.27178 0.0294,-17.61872 1,-18.23469 0.7009,-0.44482 10.16187,-0.81566 21.02437,-0.82408 10.8625,-0.008 19.75,-0.29562 19.75,-0.63822 C 193,201.22399 134.84402,102 134.16838,102.00035 133.60796,102.00063 76.163771,199.474 75.166667,202.11658 74.980685,202.60948 83.679687,203 94.845238,203 c 16.859312,0 20.259462,0.24756 21.583332,1.57143 1.29536,1.29536 1.57143,4.33463 1.57143,17.3 0,10.9 -0.36839,16.09696 -1.2,16.92857 -1.56787,1.56787 -103.343022,1.74842 -104.309239,0.18505 z"
       id="path3891"
       inkscape:connector-curvature="0" />
    <path
       style="fill:#fec3a9"
       d="m 13.666667,239.33333 c -1.357163,-1.35716 -0.495474,-3.33207 7.17148,-16.4364 C 25.149128,215.52862 49.953536,173.05 75.959055,128.5 133.59497,29.764028 132.85694,30.996913 134.31712,31.013166 c 0.65058,0.0072 28.2637,46.461807 61.36248,103.232364 44.73376,76.72674 59.90957,103.54456 59.12755,104.48684 -0.82415,0.99304 -11.9106,1.26431 -51.17959,1.25232 -27.57016,-0.008 -50.7013,-0.37943 -51.40253,-0.82445 -0.96958,-0.61533 -1.20911,-4.86343 -1,-17.73469 L 151.5,204.5 l 20.28938,-0.27083 c 15.34499,-0.20483 20.40889,-0.58228 20.7798,-1.54885 0.54765,-1.42716 -56.49006,-99.82061 -58.19434,-100.38871 -1.36367,-0.45455 -59.711129,99.35525 -58.873771,100.71012 C 75.879108,203.61341 84.034,204 96.559017,204 H 117 v 17.39301 c 0,14.93766 -0.2233,17.4787 -1.58179,18 -2.16606,0.8312 -100.918588,0.77328 -101.751543,-0.0597 z"
       id="path3889"
       inkscape:connector-curvature="0" />
    <path
       style="fill:#feb291"
       d="M 13,237.91307 C 13,235.71503 133.30152,30.933569 134.38631,31.28503 135.72312,31.71814 255,235.87066 255,237.72561 c 0,1.04321 -9.97775,1.24245 -51.75,1.03339 L 151.5,238.5 v -17 -17 l 21,-0.5 c 17.32296,-0.41245 20.94723,-0.74586 20.69863,-1.90412 -0.16576,-0.77227 -13.39736,-23.8621 -29.40357,-51.31073 -23.85854,-40.91441 -29.3347,-49.67043 -30.39263,-48.59587 C 131.29842,104.32636 75,201.12151 75,202.60191 c 0,1.09105 4.072923,1.41057 20.75,1.6278 L 116.5,204.5 v 17 17 l -51.75,0.259 C 27.484187,238.94551 13,238.70874 13,237.91307 Z"
       id="path3887"
       inkscape:connector-curvature="0" />
    <path
       style="fill:#fea37c"
       d="M 13.585374,238.13814 C 13.286261,237.65416 24.451078,217.73759 38.396079,193.87909 52.34108,170.02059 79.269053,123.95 98.23602,91.5 117.20299,59.05 133.3466,32.385134 134.11071,32.244741 135.00315,32.080771 156.7789,68.484292 195,134.03617 c 32.725,56.12568 59.6455,102.70304 59.82332,103.50526 0.28006,1.26339 -6.56371,1.45857 -51.14301,1.45857 -46.00807,0 -51.53071,-0.16776 -52.07332,-1.58179 -1.18447,-3.08668 -0.67155,-30.95365 0.59301,-32.21821 0.85452,-0.85452 7.04444,-1.2 21.5,-1.2 15.60505,0 20.28625,-0.2891 20.24053,-1.25 -0.0892,-1.87479 -58.31193,-101.04047 -59.56962,-101.4597 -0.91335,-0.30445 -57.948446,95.79084 -59.910278,100.93952 -0.61015,1.6013 0.927172,1.7499 20.690122,2 L 116.5,204.5 v 17 17 l -51.185392,0.25905 c -28.709617,0.14529 -51.424196,-0.12735 -51.729234,-0.62091 z"
       id="path3885"
       inkscape:connector-curvature="0" />
    <path
       style="fill:#fe976a"
       d="m 14,237.56143 c 0,-0.79121 19.407886,-34.65371 43.128636,-75.25 23.720749,-40.59629 50.558734,-86.540434 59.639974,-102.098106 9.08123,-15.557673 17.01084,-28.122972 17.62136,-27.922887 1.7412,0.570643 120.67718,205.042413 119.78618,205.933413 -0.43717,0.43717 -23.49315,0.67815 -51.23551,0.53551 L 152.5,238.5 152.22439,222.07485 c -0.20926,-12.47071 0.0315,-16.62006 1,-17.23469 0.70159,-0.44524 10.21559,-0.81643 21.14224,-0.82485 18.84057,-0.0145 19.84162,-0.11095 19.38236,-1.86717 -0.26635,-1.01852 -13.48133,-24.19233 -29.36663,-51.49736 -18.55047,-31.88615 -29.38479,-49.55701 -30.28688,-49.39814 -1.31604,0.23178 -58.766,97.20249 -59.83553,100.99736 -0.45816,1.62563 0.957784,1.75 19.923419,1.75 14.546271,0 20.761661,0.34503 21.616631,1.2 1.67751,1.67751 1.67751,30.92249 0,32.6 -0.90152,0.90152 -13.71111,1.2 -51.5,1.2 C 21.210216,239 14,238.79379 14,237.56143 Z"
       id="path3883"
       inkscape:connector-curvature="0" />
    <path
       style="fill:#fe8a57"
       d="m 14.496454,237.99426 c -0.348131,-0.56329 2.69555,-6.75493 6.763737,-13.75921 C 25.328379,217.23077 51.537701,172.35 79.50313,124.5 c 27.96543,-47.85 51.55513,-88.234407 52.42155,-89.743127 0.86643,-1.508719 1.94929,-2.621563 2.40636,-2.472987 C 135.88876,32.790243 254.06667,236.38388 253.5637,237.69461 253.16106,238.74386 243.45812,239 204.11317,239 c -26.92228,0 -49.6614,-0.27314 -50.53138,-0.60699 C 152.22842,237.87367 152,235.4188 152,221.39301 V 205 l 20.25,-0.0153 c 11.1375,-0.008 20.87766,-0.41275 21.6448,-0.89851 1.09375,-0.69257 -5.06167,-11.95014 -28.51877,-52.15761 -16.45246,-28.20093 -30.4024,-51.43736 -30.99987,-51.63652 -1.32854,-0.442843 -59.742737,99.33501 -59.82064,102.18022 -0.05381,1.96527 0.584388,2.03606 20.718567,2.29809 l 20.774083,0.27036 -0.27408,16.72964 L 115.5,238.5 65.314711,238.75921 c -33.443071,0.17274 -50.396452,-0.0824 -50.818257,-0.76495 z"
       id="path3881"
       inkscape:connector-curvature="0" />
    <path
       style="fill:#fe7c44"
       d="m 14,237.54936 c 0,-1.75732 119.52352,-204.543879 120.39349,-204.262567 1.05908,0.342465 119.51696,202.405367 119.57728,203.972367 0.0161,0.41754 -22.80827,0.64254 -50.72077,0.5 L 152.5,237.5 v -16 -16 l 20.78922,-0.27041 c 15.89758,-0.20678 20.90616,-0.57516 21.28622,-1.5656 0.48676,-1.26846 -56.29232,-99.71166 -59.2135,-102.66399 -1.3184,-1.332456 -1.64259,-1.286334 -2.90243,0.41292 -4.53316,6.11426 -59.505243,101.70407 -58.978461,102.55642 C 73.885528,204.6238 81.761705,205 95.059017,205 H 116 V 221.5 238 H 65 c -28.05,0 -51,-0.20279 -51,-0.45064 z"
       id="path3879"
       inkscape:connector-curvature="0" />
    <path
       style="fill:#fe6d2e"
       d="M 15,236.99099 C 15,236.42587 32.678404,205.7092 54.285341,168.73174 75.892279,131.75428 102.55478,86.093828 113.53534,67.264063 124.5159,48.434298 133.799,33.021798 134.16445,33.014063 135.14962,32.993212 253.83592,236.83075 253.20561,237.46106 252.90919,237.75748 230.26367,238 202.88223,238 H 153.0978 l -0.2989,-15.51438 c -0.1644,-8.53291 -0.1489,-15.95791 0.0344,-16.5 C 153.0381,205.38017 161.23448,205 174.08333,205 192.91279,205 195,204.83421 195,203.33852 c 0,-2.96896 -59.17917,-103.340953 -60.91264,-103.31208 -1.62762,0.0271 -60.273994,99.23411 -60.904279,103.02651 -0.302346,1.8192 0.663311,1.9193 21,2.17697 L 115.5,205.5 v 16 16 l -50.25,0.25925 C 31.351712,237.93414 15,237.68414 15,236.99099 Z"
       id="path3877"
       inkscape:connector-curvature="0" />
    <path
       style="fill:#fe611d"
       d="M 15.626887,237.20531 C 14.918223,236.05866 133.23098,33.910327 134.38551,34.29517 135.43143,34.643812 253,235.70554 253,237.1456 c 0,0.4892 -21.87388,0.75905 -49.75,0.61374 L 153.5,237.5 153.22461,221.75 152.94921,206 h 19.94361 C 192.8359,206 196,205.69199 196,203.75061 196,203.18113 182.3875,179.36969 165.75,150.8363 145.25855,115.69336 135.02592,99.047453 134.03043,99.236537 133.22217,99.390059 118.91977,122.84808 102.24732,151.36547 78.135331,192.60781 72.170174,203.50012 73.089329,204.60763 74.007612,205.7141 78.429128,206 94.622445,206 H 115 v 16 16 H 65.559017 c -27.192541,0 -49.661999,-0.35761 -49.93213,-0.79469 z"
       id="path3875"
       inkscape:connector-curvature="0" />
    <path
       style="fill:#fe5208"
       d="m 16,236.43272 c 0,-0.31201 17.26722,-30.12451 38.371601,-66.25 C 75.475981,134.05722 101.64667,89.2 112.52868,70.5 123.41069,51.8 132.80802,35.951524 133.41163,35.281165 134.45599,34.121306 148.44527,57.700271 238.65922,212.67628 L 252.81843,237 H 202.88317 152.94791 L 153.22395,221.75 153.5,206.5 174.48745,206 c 18.91357,-0.45059 21.02044,-0.67192 21.32136,-2.23982 0.2779,-1.44794 -52.93854,-94.32869 -59.02488,-103.01846 -1.34397,-1.918853 -2.37355,-2.511135 -3.38307,-1.946176 -2.1205,1.186689 -61.530218,103.293646 -61.175156,105.141186 0.259236,1.34892 3.212368,1.60028 21.537363,1.83316 L 115,206.03978 V 221.51989 237 H 65.5 C 38.275,237 16,236.74472 16,236.43272 Z"
       id="path3873"
       inkscape:connector-curvature="0" />
    <path
       style="fill:#fe4d00"
       d="M 17.393643,235.41657 C 18.619202,232.22281 133.52176,36.020613 134.1725,36.010476 c 0.36988,-0.0058 26.43752,44.202024 57.92809,98.239524 31.49058,54.0375 57.9022,99.2625 58.69251,100.5 l 1.43692,2.25 H 203.11501 154 v -15 -15 l 20.25,-0.0153 c 11.1375,-0.008 20.85187,-0.39682 21.58749,-0.86309 0.73562,-0.46628 1.18562,-1.75838 1,-2.87134 C 196.65187,202.13731 183,178.00157 166.5,149.61529 139.49086,103.14929 136.26541,98.028606 134.14697,98.251938 132.17079,98.460272 126.9266,106.82807 101.40254,150.5 c -16.715273,28.6 -30.39391,52.73936 -30.396972,53.64301 -0.0031,0.90366 0.706236,1.91616 1.576219,2.25 0.869984,0.33385 10.544984,0.60699 21.5,0.60699 H 114 v 15 15 H 65.393011 c -43.933662,0 -48.548569,-0.15224 -47.999368,-1.58343 z"
       id="path3871"
       inkscape:connector-curvature="0" />
  </g>
</svg>
